<?xml version="1.0" encoding="iso-8859-1"?>
<!-- Generator: Adobe Illustrator 18.0.0, SVG Export Plug-In . SVG Version: 6.00 Build 0)  -->
<!DOCTYPE svg PUBLIC "-//W3C//DTD SVG 1.1//EN" "http://www.w3.org/Graphics/SVG/1.1/DTD/svg11.dtd">
<svg version="1.1" id="Capa_1" xmlns="http://www.w3.org/2000/svg" xmlns:xlink="http://www.w3.org/1999/xlink" x="0px" y="0px"
	 viewBox="0 0 446.522 446.522" style="enable-background:new 0 0 446.522 446.522;" xml:space="preserve">
<g fill="white" >
	<path d="M223.261,72.417c-83.175,0-150.844,67.668-150.844,150.844s67.668,150.844,150.844,150.844s150.844-67.668,150.844-150.844
		S306.436,72.417,223.261,72.417z M343.957,229.274c-1.363,27.655-13.112,53.884-32.649,73.505
		c-0.075,0.076-0.151,0.151-0.226,0.227c-34,34-89.32,33.999-123.321,0c-26.03-26.03-26.03-68.384,0-94.414
		c19.656-19.654,51.635-19.653,71.289,0c14.554,14.554,14.554,38.234,0,52.788c-9.618,9.617-24.775,10.403-35.298,2.355
		c-4.045-3.094-7.897-9.612-8.091-14.701c-0.193-5.059,1.629-9.855,5.09-13.483c5.416-5.676,6.274-14.498,1.24-20.516
		c-5.734-6.857-15.963-7.195-22.142-1.016c-9.159,9.158-14.203,21.335-14.203,34.287s5.044,25.128,14.203,34.287
		c22.172,22.17,58.245,22.169,80.414,0c26.251-26.251,26.25-68.964,0-95.214c-31.351-31.35-82.364-31.351-113.714,0
		c-37.727,37.727-37.727,99.113,0,136.839c4.524,4.523,9.332,8.592,14.362,12.22c-46.93-17.619-80.09-63.628-78.433-117.003
		c1.993-64.217,54.719-116.053,118.96-117.005c67.465-1,122.668,53.59,122.668,120.83
		C344.105,225.277,344.056,227.282,343.957,229.274z" />
	<path d="M223.261,64.522c8.285,0,15-6.716,15-15V15c0-8.284-6.715-15-15-15c-8.284,0-15,6.716-15,15v34.522
		C208.261,57.807,214.977,64.522,223.261,64.522z"/>
	<path d="M223.261,382c-8.284,0-15,6.716-15,15v34.522c0,8.284,6.716,15,15,15c8.285,0,15-6.716,15-15V397
		C238.26,388.716,231.546,382,223.261,382z"/>
	<path d="M123.402,80.299c2.778,4.813,7.82,7.502,13.004,7.502c2.544,0,5.124-0.648,7.486-2.012
		c7.174-4.142,9.632-13.316,5.49-20.49l-17.261-29.897c-4.142-7.174-13.316-9.633-20.49-5.49c-7.174,4.142-9.632,13.316-5.49,20.49
		L123.402,80.299z"/>
	<path d="M323.121,366.224c-4.143-7.175-13.317-9.632-20.49-5.49c-7.175,4.142-9.633,13.316-5.49,20.49l17.261,29.897
		c2.778,4.813,7.82,7.502,13.004,7.502c2.545,0,5.124-0.648,7.486-2.012c7.174-4.142,9.633-13.316,5.49-20.49L323.121,366.224z"/>
	<path d="M35.402,132.121l29.897,17.261c2.362,1.364,4.941,2.012,7.486,2.012c5.184,0,10.227-2.69,13.004-7.502
		c4.142-7.174,1.684-16.348-5.49-20.49l-29.897-17.261c-7.175-4.144-16.349-1.685-20.49,5.49
		C25.769,118.805,28.227,127.979,35.402,132.121z"/>
	<path d="M411.121,314.402l-29.897-17.261c-7.175-4.145-16.348-1.685-20.49,5.49c-4.143,7.174-1.685,16.348,5.49,20.49
		l29.897,17.261c2.362,1.364,4.941,2.012,7.486,2.012c5.184,0,10.226-2.69,13.004-7.502
		C420.754,327.718,418.296,318.544,411.121,314.402z"/>
	<path d="M64.522,223.261c0-8.284-6.716-15-15-15H15c-8.284,0-15,6.716-15,15s6.716,15,15,15h34.522
		C57.806,238.261,64.522,231.545,64.522,223.261z"/>
	<path d="M431.522,208.261H397c-8.284,0-15,6.716-15,15s6.716,15,15,15h34.522c8.284,0,15-6.716,15-15
		S439.806,208.261,431.522,208.261z"/>
	<path d="M65.299,297.141l-29.897,17.261c-7.174,4.142-9.632,13.316-5.49,20.49c2.778,4.813,7.82,7.502,13.004,7.502
		c2.544,0,5.124-0.648,7.486-2.012l29.897-17.261c7.174-4.142,9.632-13.316,5.49-20.49
		C81.647,295.456,72.474,292.998,65.299,297.141z"/>
	<path d="M373.737,151.395c2.545,0,5.124-0.648,7.486-2.012l29.897-17.261c7.175-4.142,9.633-13.316,5.49-20.49
		c-4.143-7.175-13.316-9.631-20.49-5.49l-29.897,17.261c-7.175,4.142-9.633,13.316-5.49,20.49
		C363.511,148.705,368.553,151.395,373.737,151.395z"/>
	<path d="M143.892,360.733c-7.175-4.144-16.349-1.685-20.49,5.49l-17.261,29.897c-4.142,7.174-1.684,16.348,5.49,20.49
		c2.362,1.364,4.941,2.012,7.486,2.012c5.184,0,10.226-2.69,13.004-7.502l17.261-29.897
		C153.524,374.049,151.066,364.875,143.892,360.733z"/>
	<path d="M302.631,85.79c2.362,1.364,4.941,2.012,7.486,2.012c5.184,0,10.226-2.69,13.004-7.502l17.261-29.897
		c4.143-7.175,1.684-16.349-5.49-20.49c-7.174-4.144-16.349-1.685-20.49,5.49L297.14,65.299
		C292.998,72.474,295.457,81.648,302.631,85.79z"/>
</g>
<g>
</g>
<g>
</g>
<g>
</g>
<g>
</g>
<g>
</g>
<g>
</g>
<g>
</g>
<g>
</g>
<g>
</g>
<g>
</g>
<g>
</g>
<g>
</g>
<g>
</g>
<g>
</g>
<g>
</g>
</svg>
